<svg width="525" height="100" viewBox="0 0 525 100" fill="none" xmlns="http://www.w3.org/2000/svg">
<path d="M512.695 22.9643C512.695 22.1565 512.851 21.3913 513.163 20.6827C513.475 19.9741 513.9 19.3505 514.424 18.8262C514.963 18.3018 515.586 17.8766 516.295 17.579C517.004 17.2672 517.769 17.1113 518.577 17.1113C519.384 17.1113 520.15 17.2672 520.858 17.579C521.567 17.8908 522.19 18.3018 522.729 18.8262C523.268 19.3505 523.678 19.9741 523.99 20.6827C524.302 21.3913 524.458 22.1565 524.458 22.9643C524.458 23.7721 524.302 24.5374 523.99 25.2318C523.678 25.9404 523.253 26.5498 522.729 27.0742C522.19 27.5985 521.567 28.0095 520.858 28.3071C520.15 28.6047 519.384 28.7606 518.577 28.7606C517.769 28.7606 517.004 28.6047 516.295 28.3071C515.586 28.0095 514.963 27.5985 514.424 27.0742C513.886 26.5498 513.475 25.9404 513.163 25.2318C512.851 24.5232 512.695 23.7721 512.695 22.9643ZM513.617 22.9643C513.617 23.6304 513.744 24.2681 513.999 24.8775C514.254 25.4869 514.609 26.0113 515.062 26.4648C515.516 26.9183 516.04 27.2726 516.635 27.5418C517.23 27.7969 517.882 27.9244 518.577 27.9244C519.271 27.9244 519.909 27.7969 520.518 27.5418C521.128 27.2867 521.652 26.9324 522.091 26.4648C522.545 26.0113 522.899 25.4727 523.154 24.8775C523.409 24.2681 523.537 23.6446 523.537 22.9643C523.537 22.2841 523.409 21.6322 523.154 21.0228C522.899 20.4276 522.545 19.889 522.091 19.4497C521.638 18.9962 521.113 18.6561 520.518 18.3868C519.923 18.1176 519.271 18.0042 518.577 18.0042C517.882 18.0042 517.244 18.1317 516.635 18.3868C516.026 18.6419 515.501 18.9962 515.062 19.4497C514.609 19.9032 514.254 20.4276 513.999 21.0228C513.744 21.6322 513.617 22.2699 513.617 22.9643ZM516.281 19.634H518.605C518.917 19.634 519.214 19.6623 519.512 19.7331C519.81 19.804 520.065 19.9174 520.306 20.0733C520.532 20.2292 520.717 20.4276 520.858 20.6685C521 20.9094 521.071 21.207 521.071 21.5755C521.071 22.0573 520.929 22.4541 520.66 22.7517C520.391 23.0493 520.008 23.2619 519.554 23.3611L521.34 26.2522H519.895L518.35 23.4887H517.5V26.2522H516.309V19.634H516.281ZM518.421 22.525C518.761 22.525 519.087 22.4541 519.399 22.3266C519.71 22.1991 519.866 21.9298 519.866 21.533C519.866 21.1645 519.725 20.9236 519.441 20.8102C519.158 20.6968 518.86 20.626 518.548 20.626H517.457V22.5108H518.407L518.421 22.525Z" fill="#ffffff"/>
<path d="M444.896 41.5427C446.427 39.7145 447.277 37.6596 447.419 35.3921C447.561 33.1813 447.66 30.9421 447.476 28.7455C447.022 23.1476 443.862 19.6755 438.349 18.641C433.389 17.7056 428.386 18.4284 423.072 18.1733V20.6817C423.072 31.2256 423.072 41.7836 423.072 52.3274C423.072 54.354 423.015 56.3948 423.157 58.4072C423.596 64.2743 427.975 70.3115 435.77 70.0564C436.308 70.0422 436.847 70.0422 437.385 70.0422C443.564 70.0989 447.773 65.7482 448.964 60.8022C449.814 57.2309 449.644 53.5462 449.176 49.9182C448.751 46.7012 447.376 43.8527 444.882 41.5568L444.896 41.5427ZM430.498 24.6073C432.468 24.1538 434.324 24.1963 436.124 24.8624C437.725 25.4434 438.873 26.5772 439.454 28.1786C440.461 30.9847 440.517 33.8757 439.766 36.7384C439.242 38.7366 438.335 39.3319 436.252 39.3602C434.381 39.3885 432.51 39.3602 430.498 39.3602V24.6073ZM442.105 57.3301C441.991 60.3487 439.483 62.6587 436.337 62.6587C433.148 62.6587 430.554 60.4337 430.469 57.4435C430.37 53.8722 430.413 50.2867 430.413 46.7012C430.413 46.4461 430.512 46.191 430.554 45.9643C436.266 43.9661 441.934 47.7783 442.119 53.6738C442.161 54.8925 442.161 56.1113 442.119 57.3159L442.105 57.3301Z" fill="#ffffff"/>
<path d="M150.322 54.9084C148.777 54.9084 147.431 54.8517 146.084 54.9084C144.171 55.0076 142.683 54.1998 141.422 52.8534C140.019 51.3512 139.381 49.5797 139.395 47.4965C139.423 38.2139 139.409 28.9456 139.395 19.663V17.4238H132.196C132.153 18.1182 132.097 18.7135 132.097 19.3087C132.097 29.2007 132.068 39.0784 132.097 48.9704C132.125 56.2405 138.148 62.221 145.39 62.2636C146.538 62.2636 147.686 62.2494 148.848 62.2636C149.301 62.2636 149.755 62.3911 150.421 62.4903V83.1812H157.549V17.4238H150.293V54.88L150.322 54.9084Z" fill="#ffffff"/>
<path d="M292.18 28.2634C291.301 21.0074 284.229 15.9056 277.087 17.3511C270.922 18.5982 266.769 23.5017 266.67 29.8082C266.585 34.5415 266.656 39.2749 266.656 44.0083H266.67C266.67 48.8834 266.543 53.7444 266.699 58.6195C266.854 63.5513 269.292 67.2501 273.685 69.4751C278.079 71.6859 282.486 71.4309 286.582 68.6957C290.55 66.0597 292.321 62.1908 292.307 57.4716C292.293 48.4725 292.307 39.4875 292.307 30.4884C292.307 29.7514 292.279 29.0004 292.18 28.2634ZM284.938 58.4352C284.683 61.4255 282.387 63.5371 279.411 63.5229C276.406 63.5088 274.082 61.4113 274.025 58.3502C273.926 53.4893 273.997 48.6142 273.997 43.7532H273.969C273.969 39.2324 273.94 34.6974 273.969 30.1766C273.997 27.5406 275.315 25.6133 277.498 24.7771C280.7 23.5583 284.3 25.6274 284.853 29.0429C284.952 29.6381 284.952 30.2616 284.952 30.8569C284.952 39.6434 284.952 48.4299 284.952 57.2165C284.952 57.6275 284.952 58.0243 284.924 58.4352H284.938Z" fill="#ffffff"/>
<path d="M185.027 57.6857C185.027 57.9408 185.027 58.1958 184.998 58.4368C184.743 61.427 182.448 63.5386 179.471 63.5245C177.502 63.5245 175.815 62.6033 174.88 61.1011C174.851 61.0444 174.823 60.9877 174.781 60.931C174.681 60.761 174.596 60.5767 174.511 60.3925C174.469 60.2933 174.426 60.1799 174.384 60.0807C174.299 59.8398 174.228 59.6131 174.171 59.358C174.015 58.6919 173.944 57.9974 173.959 57.2463C173.987 55.9992 174.398 55.3473 175.475 54.7379C178.366 53.1365 181.271 51.5067 183.992 49.6361C188.06 46.8584 190.667 42.9753 191.659 38.1002C192.283 35.0391 192.51 31.9354 192.184 28.8176C191.248 19.7618 182.249 14.4616 174.157 18.2738C169.239 20.598 166.717 24.6228 166.688 30.0789C166.646 39.3473 166.674 48.6157 166.688 57.8841C166.688 58.4226 166.688 58.9753 166.759 59.4997C166.887 60.52 167.099 61.4979 167.411 62.4191C167.468 62.5749 167.51 62.745 167.567 62.8867C168.644 65.7069 170.713 67.9177 173.718 69.4341C178.111 71.6449 182.518 71.3899 186.614 68.6547C190.582 66.0187 192.354 62.1498 192.34 57.4306C192.34 55.5032 192.34 53.5759 192.34 51.6485C190.426 54.1852 187.875 56.2543 184.998 57.6431L185.027 57.6857ZM174.044 30.164C174.072 27.2446 175.758 25.133 178.38 24.5377C181.073 23.9142 184.006 25.4448 184.559 28.1374C185.665 33.5652 185.069 38.6529 180.704 42.7061C178.579 44.6901 176.198 46.1782 174.143 46.7734C174.1 46.4474 174.029 46.1356 174.029 45.8238C174.029 40.6086 174.001 35.3934 174.029 30.1781L174.044 30.164Z" fill="#ffffff"/>
<path d="M347.878 28.6614C347.098 20.385 338.609 15.0139 330.801 17.8624C325.798 19.6906 322.454 24.2398 322.354 29.6251C322.269 34.4293 322.34 39.2336 322.34 44.0236C322.34 48.8988 322.213 53.7597 322.368 58.6348C322.539 63.5666 324.962 67.2655 329.355 69.4905C333.748 71.7013 338.156 71.432 342.252 68.711C346.22 66.075 347.977 62.2061 347.977 57.4727C347.963 48.4736 347.977 39.4886 347.977 30.4895C347.977 29.8801 347.949 29.2708 347.892 28.6614H347.878ZM340.593 58.5498C340.31 61.5117 337.958 63.5949 334.967 63.5241C332.048 63.4532 329.795 61.4125 329.695 58.4648C329.568 54.6809 329.639 50.897 329.639 47.1131C329.639 46.036 329.639 44.9448 329.639 43.8677C329.639 39.2761 329.61 34.6702 329.639 30.0786C329.667 27.4709 331.027 25.5577 333.267 24.7499C336.484 23.5878 340.041 25.7278 340.537 29.1574C340.622 29.7526 340.622 30.3762 340.622 30.9714C340.622 39.6871 340.622 48.4027 340.622 57.1184C340.622 57.5861 340.622 58.0679 340.579 58.5356L340.593 58.5498Z" fill="#ffffff"/>
<path d="M414.894 28.4072C414.072 21.052 406.972 15.8934 399.731 17.3815C393.679 18.6144 389.498 23.5179 389.385 29.6968C389.3 34.5011 389.371 39.3053 389.371 44.0954H389.385C389.385 48.9705 389.258 53.8315 389.413 58.7066C389.725 67.975 399.73 73.7854 407.95 69.5055C412.712 67.0254 414.994 62.9582 415.008 57.6295C415.036 48.5737 415.008 39.5037 415.008 30.4479C415.008 29.7677 414.965 29.1016 414.894 28.4214V28.4072ZM407.667 56.8359C407.667 57.5729 407.667 58.3381 407.568 59.0609C407.128 61.7677 404.733 63.6242 401.913 63.525C399.164 63.4258 397.038 61.4843 396.74 58.7633C396.669 58.1539 396.684 57.5445 396.684 56.9351C396.684 48.2903 396.684 39.6313 396.684 30.9865C396.684 30.5188 396.684 30.0369 396.726 29.5693C396.953 26.7066 399.22 24.5099 402.026 24.4249C404.875 24.354 407.355 26.5648 407.653 29.4701C407.723 30.1361 407.695 30.8164 407.695 31.4967C407.695 35.6915 407.695 39.8722 407.695 44.0671C407.695 48.2619 407.695 52.5844 407.695 56.8359H407.667Z" fill="#ffffff"/>
<path d="M356.777 18.2876V20.9094C356.777 32.8279 356.749 44.7465 356.806 56.6508C356.82 59.6127 355.998 61.9653 353.163 63.2974C353.064 63.3541 353.007 63.51 352.852 63.7084C352.951 65.9475 352.724 68.2859 352.993 70.7376C353.659 70.6242 354.127 70.5959 354.566 70.4684C360.278 68.9095 364.061 63.7934 364.076 57.572C364.09 47.3541 364.076 37.122 364.076 26.9041C364.076 26.1955 364.132 25.4869 364.161 24.835H374.053V69.6605H381.025C381.436 67.4356 381.365 19.804 380.954 18.2734H356.763L356.777 18.2876Z" fill="#ffffff"/>
<path d="M251.267 18.3445V41.1186C247.582 41.1186 244.181 41.1895 240.567 41.0903V18.2453C238.031 18.2169 235.706 18.1036 233.453 18.302V69.6607H240.652V47.8077C243.303 47.4109 249.708 47.496 251.31 47.9495V69.6182H258.452V18.2595C256.015 18.1886 253.705 18.0894 251.253 18.3303L251.267 18.3445Z" fill="#ffffff"/>
<path d="M510.483 30.205C510.483 29.4681 510.455 28.717 510.37 27.98C509.449 20.2989 502.845 15.6647 495.348 17.507C491.79 18.3857 488.942 20.2989 487.1 23.8277C489.155 25.2307 491.139 26.577 493.179 27.9658C493.59 27.3281 493.888 26.7896 494.271 26.3219C495.659 24.6354 497.53 24.1678 499.571 24.4938C501.569 24.8055 502.561 26.2936 502.958 28.1076C503.553 30.7435 503.482 33.1811 500.719 34.7825C499.372 35.5478 498.182 36.5823 496.949 37.5318C495.447 38.6797 493.916 39.8135 492.499 41.0606C487.142 45.7799 484.605 51.7604 484.804 58.8605C484.96 64.4017 488.46 68.8374 493.732 69.9995C495.418 70.368 497.232 70.3538 498.961 70.1838C504.673 69.6027 508.839 65.8188 510.072 60.2068C510.327 59.0305 510.469 57.7976 510.469 56.593C510.497 47.7923 510.483 39.0057 510.469 30.205H510.483ZM503.185 51.3494C503.185 53.1067 503.185 54.864 503.185 56.6355C503.185 58.1802 502.689 59.5549 501.739 60.7737C500.18 62.7719 498.012 63.4805 495.815 62.7435C493.619 62.0066 492.187 60.0793 492.116 57.67C492.046 55.3884 492.584 53.2484 493.647 51.236C495.744 47.2679 499.103 44.6319 503.185 42.0385C503.185 45.4256 503.185 48.4016 503.185 51.3636V51.3494Z" fill="#ffffff"/>
<path d="M470.889 39.0212C470.379 37.8308 470.407 36.9663 471.13 35.8751C474.588 30.6173 477.946 25.3029 481.348 20.0026C481.659 19.5208 481.915 18.9823 482.326 18.217C480.03 18.217 478.017 18.2736 476.005 18.1886C474.857 18.1461 474.177 18.5429 473.567 19.535C471.116 23.5031 468.579 27.4287 466.056 31.3543C465.716 31.8928 465.319 32.403 464.951 32.9132C464.823 32.8707 464.682 32.8281 464.554 32.7998V18.3162H457.525C457.1 20.6545 457.199 68.2011 457.61 69.6749H464.625V43.1311C464.767 43.1027 464.908 43.0744 465.064 43.046C468.565 51.946 472.079 60.8317 475.622 69.8025C477.082 69.8025 478.442 69.8025 479.789 69.8025C481.093 69.8025 482.411 69.7599 483.955 69.7316C483.558 68.7396 483.289 68.0593 483.006 67.3933C478.981 57.9406 474.985 48.4738 470.903 39.0354L470.889 39.0212Z" fill="#ffffff"/>
<path d="M300.033 18.2868V69.688H307.289V24.6641H319.477C319.576 22.3966 319.605 20.3559 319.477 18.2018C312.83 18.2443 306.439 18.1167 300.047 18.2868H300.033Z" fill="#ffffff"/>
<path d="M207.362 81.0953L207.546 68.6524C209.403 70.3105 209.842 70.5231 211.557 70.7498C218.855 71.7135 225.629 65.8747 225.672 58.4628C225.729 49.1236 225.7 39.7702 225.672 30.4309C225.658 24.1103 220.967 18.7108 214.845 17.8747C208.368 16.996 202.303 20.8366 200.63 27.0297C200.205 28.6311 200.106 30.3742 200.106 32.0465C200.092 39.2175 200.092 46.3884 200.092 53.5594V82.5691C202.515 82.0589 204.939 81.5629 207.362 81.0811V81.0953ZM207.447 31.4088C207.447 30.1192 207.815 28.702 208.453 27.5824C209.644 25.485 212.265 24.6205 214.448 25.2866C216.659 25.9526 218.331 28.0359 218.359 30.4168C218.416 35.0793 218.373 39.7418 218.373 44.4044C218.373 48.9394 218.416 53.4602 218.373 57.9952C218.331 61.5948 215.652 63.8623 212.081 63.4513C209.601 63.1537 207.702 61.1838 207.419 58.5904C207.376 58.2503 207.404 57.9101 207.404 57.57C207.404 48.8543 207.362 40.1245 207.461 31.4088H207.447Z" fill="#ffffff"/>
<path d="M33.3765 57.0734C19.2859 54.1303 8.76931 48.2243 7.50042 47.7261C6.23153 47.2278 5.01578 47.1614 4.50424 48.0915C3.9927 49.0215 4.84305 49.7922 5.38117 50.1642L7.0221 51.2936C7.0221 51.2936 5.38781 51.1341 4.42452 51.0345C3.72696 50.9614 2.56436 51.0013 2.19233 52.217C1.90002 53.1604 2.17904 54.044 3.55423 54.5223C4.92942 55.0006 6.01894 55.4324 6.01894 55.4324C6.01894 55.4324 4.79655 55.4324 2.95632 55.3992C1.67414 55.3726 1.04302 56.0104 0.803854 56.987C0.564691 57.9636 1.03637 59.2391 2.85003 59.8171C4.0857 60.2091 5.70005 60.6475 5.70005 60.6475C5.70005 60.6475 4.0857 60.8468 2.73709 60.88C0.644412 60.9332 0 62.0825 0 63.3846C0 64.6867 0.857001 66.1018 3.08919 66.2014C10.1578 66.507 28.766 65.1584 38.3525 62.7003C35.8413 60.8867 33.6224 59.3255 33.3633 57.0734H33.3765Z" fill="#ffffff"/>
<path d="M31.7346 27.5884C31.522 27.2031 30.5985 26.4989 29.9342 26.9772C29.117 27.5685 28.4062 31.8601 30.9373 35.7798C32.3192 37.9256 38.358 45.8246 38.358 45.8246C35.5877 43.5459 31.5751 38.4504 30.9772 38.2245C30.3793 37.9987 29.974 38.8889 30.6982 40.6693C31.9804 43.805 38.3514 50.6344 38.3514 50.6344C36.0594 49.1065 33.0367 46.5089 32.3125 45.8977C31.5884 45.2865 31.5818 46.9473 32.5716 48.2428C34.7507 51.1061 40.5039 55.916 40.5039 55.916C40.371 55.8429 35.3419 53.3051 34.9433 52.9796C34.4849 52.6009 35.2489 54.0425 35.6077 54.6138C41.2679 63.6688 49.3596 66.871 56.6407 67.4224C63.9219 67.9738 67.9678 65.7814 71.6349 62.7853C75.3021 59.7891 77.913 56.5072 78.3714 54.3415C78.5042 53.7236 78.3315 53.5575 78.0857 53.5708C71.3161 53.9628 66.752 53.531 61.5104 52.0296C50.6152 48.9138 39.5804 41.141 31.7346 27.5884Z" fill="#ffffff"/>
<path d="M69.9882 1.42037C43.4212 -5.05697 16.6283 11.2327 10.1509 37.7997C9.4401 40.7561 8.99499 43.7788 8.82227 46.8149C11.2405 48.024 13.8115 49.2264 16.0902 50.2296C15.2332 24.7919 35.5355 3.5064 61.2721 3.82528C84.2517 4.11095 103.498 22.108 105.325 45.0145C107.371 70.6714 87.5999 92.5614 62.1623 93.4184C58.0899 93.558 54.0175 93.1328 50.0513 92.1695C39.5016 89.5453 28.1945 81.5865 22.1888 71.3158C21.9098 70.7976 32.2603 69.6084 37.8009 70.6913C43.4478 71.7941 48.6429 74.4847 54.3098 75.5875C61.3252 76.9494 69.5166 76.4312 76.0205 73.4815C80.8768 71.2826 86.6499 65.443 88.2776 60.2279C90.5762 52.9202 88.8356 51.3523 92.071 46.5956C93.7385 44.0047 96.934 42.4435 98.5417 41.9452C98.9469 41.8256 98.8406 41.2477 97.977 41.1148C97.1133 40.9819 93.3266 40.4505 91.7322 40.3375C91.3801 40.3375 91.4731 40.1847 91.5794 40.0718C92.5094 39.1218 96.077 35.6738 97.2861 34.5245C97.5385 34.292 97.4123 34.1525 97.1731 34.1857C95.8444 34.3651 92.4364 35.1756 91.8717 35.2952C90.8087 35.5675 89.686 35.335 88.6895 34.8633C86.6964 33.7539 84.4177 33.3619 82.1457 33.5214C75.6684 34.2521 74.7582 39.7396 72.6655 42.8753C71.5827 44.1774 70.3403 45.3467 68.9718 46.3565C74.632 48.0505 79.2824 47.5855 81.0828 46.9411C83.4412 46.0907 84.9758 44.9613 86.4373 43.1809C86.4905 43.1145 86.4639 43.0148 86.3776 42.9949C85.6202 42.8487 84.5639 42.2375 84.6636 40.7361C84.7499 39.3809 85.866 38.7896 86.7562 38.8693C87.095 38.9025 87.5867 39.0088 87.8723 39.1949C88.1049 39.3344 88.1779 39.2414 88.2444 39.1085C88.5367 38.5438 89.2475 37.1221 90.058 36.6504C90.8685 36.1787 92.3898 35.9927 93.6787 35.8798C93.7916 35.8798 93.878 35.9329 93.7185 36.0658C92.164 37.4144 90.7556 38.9291 89.5133 40.57C89.4136 40.6896 89.3073 41.0218 89.7391 41.055C90.0182 41.055 93.1871 41.4868 94.4825 41.6263C94.7748 41.6263 94.5622 41.8987 94.4161 41.9585C93.2867 42.3837 92.2171 42.9417 91.2273 43.626C91.2273 43.626 88.5167 45.2204 87.1216 50.6548C85.7265 56.0891 86.4573 62.9384 76.7712 68.592C68.6861 73.2889 57.5053 73.0763 49.6328 69.6084C38.7575 64.8318 39.0498 64.8385 12.2636 67.8014C22.3483 93.2191 51.1342 105.649 76.5519 95.5576C102.368 85.3666 114.552 56.6205 104.468 31.2028C98.5483 16.2883 86.0587 5.3267 70.0148 1.43365" fill="#ffffff"/>
<path d="M43.4079 29.0789C42.8432 28.1156 41.7072 30.0621 42.9561 32.4737C45.0554 36.5527 46.7163 39.0307 46.7163 39.0307C46.7163 39.0307 45.3743 37.9744 43.0757 35.1045C42.2918 34.1279 42.2453 36.4132 43.1687 37.8947C46.3841 43.0566 53.0209 47.5077 62.3283 50.763C63.2518 50.2249 68.1214 47.2221 69.1113 46.2986C62.986 43.9402 52.217 37.8881 46.1649 21.14C45.1418 18.3099 42.2984 21.7246 43.7533 26.2156C45.454 31.4705 47.4604 34.7125 47.4604 34.7125C47.4604 34.7125 45.7663 33.1181 43.4079 29.0855V29.0789Z" fill="#ffffff"/>
<path d="M86.3996 40.4707C86.0741 40.3909 86.3797 39.7399 86.1272 39.6602C85.815 39.8329 85.5692 40.1385 85.4762 40.5238C85.2968 41.2479 85.7286 41.9654 86.4328 42.1382C87.137 42.3109 87.8479 41.8658 88.0272 41.1416C88.0671 40.9822 88.0737 40.8228 88.0605 40.67C88.0007 40.1318 86.9576 40.6035 86.4062 40.4707" fill="#ffffff"/>
</svg>
