<svg width="250" height="250" viewBox="0 0 250 250" fill="none" xmlns="http://www.w3.org/2000/svg">
<path d="M89.7812 126.178C89.7812 124.831 91.2512 123.989 92.4271 124.662L117.311 138.912C117.857 139.225 118.195 139.803 118.195 140.428V193.491C118.195 193.661 118.2 193.831 118.212 194L89.7812 177.76V126.178Z" fill="#ffffff"/>
<path d="M158.573 124.662C159.749 123.989 161.219 124.831 161.219 126.178V177.76L132.786 194C132.798 193.831 132.805 193.661 132.805 193.491V140.428C132.805 139.803 133.142 139.225 133.687 138.912L158.573 124.662Z" fill="#ffffff"/>
<path fill-rule="evenodd" clip-rule="evenodd" d="M121.101 57.1664C123.824 55.6112 127.176 55.6112 129.899 57.1664L184.58 88.3984C187.314 89.96 189 92.8516 189 95.9817V156.836C189 159.966 187.314 162.857 184.58 164.419L174.183 170.356V105.327C174.182 102.633 171.244 100.949 168.893 102.295L129.908 124.619C127.18 126.181 123.82 126.181 121.092 124.619L82.1073 102.295C79.7556 100.949 76.8176 102.633 76.8174 105.327V170.356L66.4201 164.419C63.6861 162.857 62.0003 159.966 62 156.836V95.9817C62.0002 92.8516 63.686 89.96 66.4201 88.3984L121.101 57.1664ZM127.304 68.7848C126.212 68.16 124.869 68.1601 123.777 68.7848L90.0482 88.0993C87.6958 89.4464 87.6958 92.8144 90.0482 94.1615L123.777 113.476C124.869 114.101 126.212 114.101 127.304 113.476L161.033 94.1615C163.385 92.8142 163.385 89.4465 161.033 88.0993L127.304 68.7848Z" fill="#ffffff"/>
<circle opacity="0.1" cx="125" cy="125" r="109.5" stroke="#1A2531" stroke-width="5"/>
</svg>
