<?xml version="1.0" encoding="UTF-8"?> <svg xmlns="http://www.w3.org/2000/svg" width="435" height="103" viewBox="0 0 435 103" fill="none"><path d="M23.7333 1.91317C15.0667 4.31317 8.26667 10.0465 3.73333 18.8465L0 26.0465L0.4 53.3798C0.8 79.7798 0.933333 80.8465 4.13333 85.9132C8.66667 93.3798 14.4 98.3132 21.3333 100.713C30.1333 103.646 168.4 103.78 178.267 100.713C185.6 98.4465 191.333 93.7798 196.133 85.9132C199.467 80.8465 199.467 80.1798 199.467 52.0465C199.467 23.9132 199.467 23.2465 196.133 17.3798C191.733 9.6465 183.333 3.37984 174.8 1.51317C164.533 -0.753497 32.1333 -0.353497 23.7333 1.91317ZM68 37.5132C69.3333 38.9798 70.8 41.3798 71.2 42.8465C72.1333 46.3132 66.6667 46.3132 64.4 42.7132C62.4 39.5132 54.6667 39.1132 52.1333 42.0465C49.6 44.9798 52.4 47.5132 60.6667 49.9132C68.6667 52.3132 72.1333 55.3798 72.1333 60.1798C72.1333 66.1798 69.2 68.4465 60.6667 69.1132C54.1333 69.5132 52.2667 69.1132 49.2 66.7132C46.9333 64.9798 45.4667 62.5798 45.4667 60.5798C45.4667 56.4465 48.5333 56.4465 51.3333 60.7132C53.0667 63.3798 54.6667 64.0465 58.6667 64.0465C64.8 64.0465 68 61.1132 65.4667 58.0465C64.5333 56.9798 60.8 55.1132 57.0667 54.0465C48.6667 51.5132 45.4667 48.7132 45.4667 43.7798C45.4667 37.6465 49.6 34.7132 58.1333 34.7132C63.7333 34.7132 66 35.3798 68 37.5132ZM105.2 36.8465C108.4 38.9798 109.2 44.9798 106.8 49.3798C105.867 51.1132 106 52.1798 107.467 53.3798C110.533 55.9132 110 63.5132 106.533 66.7132C104.133 68.9798 101.867 69.3798 93.2 69.3798H82.8V52.0465V34.7132H92.5333C99.0667 34.7132 103.2 35.3798 105.2 36.8465ZM146.8 36.7132C151.867 39.2465 154.8 45.1132 154.8 52.0465C154.8 63.1132 148.267 69.3798 136.8 69.3798C125.333 69.3798 118.8 63.3798 118.8 52.7132C118.8 45.2465 121.6 39.5132 126.533 36.8465C131.2 34.1798 141.867 34.1798 146.8 36.7132Z" fill="white"></path><path d="M88.1333 43.9133C88.1333 49.1133 88.4 49.3799 92 49.3799C98.1333 49.3799 102.8 47.1133 102.8 44.1799C102.8 40.8466 101.733 40.1799 94.2666 39.2466L88.1333 38.3133V43.9133Z" fill="white"></path><path d="M89.0666 54.3134C88.5333 54.7134 88.1333 57.1134 88.1333 59.6467C88.1333 63.5134 88.5333 64.0467 91.8666 64.18C100.933 64.58 105.067 62.3134 103.6 57.6467C102.4 54.0467 91.7333 51.6467 89.0666 54.3134Z" fill="white"></path><path d="M127.467 43.3797C122.667 48.0464 122.8 56.3131 127.6 60.7131C131.867 64.5797 140.533 65.2464 145.067 62.0464C148.267 59.7797 150.267 52.5797 148.8 48.1797C146.133 39.7797 133.733 36.9797 127.467 43.3797Z" fill="white"></path><path d="M232.133 48.5799C232.133 58.8466 232.667 65.3799 233.467 65.3799C234.267 65.3799 234.8 60.3133 234.8 52.7133C234.8 45.7799 235.333 40.0466 235.867 40.0466C236.533 40.0466 240.8 45.7799 245.467 52.7133C256.133 68.4466 257.333 68.0466 256.667 48.5799C256 30.0466 254.267 28.0466 253.467 44.8466L252.8 58.4466L244 45.6466C239.2 38.5799 234.533 32.5799 233.733 32.3133C232.533 31.9133 232.133 36.3133 232.133 48.5799Z" fill="white"></path><path d="M297.467 48.5799C297.467 58.8466 298 65.3799 298.8 65.3799C299.6 65.3799 300.133 59.2466 300.133 49.5133C300.133 40.3133 299.6 33.2466 298.8 32.7133C298 32.1799 297.467 37.7799 297.467 48.5799Z" fill="white"></path><path d="M350.533 32.8466C348.933 34.3133 349.2 65.3799 350.8 65.3799C351.6 65.3799 352.133 62.0466 352.133 58.0466V50.7133H361.467H370.8V58.0466C370.8 62.0466 371.467 65.3799 372.133 65.3799C372.933 65.3799 373.467 59.2466 373.467 49.5133C373.467 40.3133 372.933 33.2466 372.133 32.7133C371.333 32.1799 370.8 34.7133 370.8 39.2466V46.7133H361.467H352.267L351.867 39.2466C351.6 35.1133 351.067 32.3133 350.533 32.8466Z" fill="white"></path><path d="M381.067 32.8466C379.333 34.7133 381.733 36.0466 386.933 36.0466H392.133V50.7133C392.133 59.6466 392.667 65.3799 393.467 65.3799C394.267 65.3799 394.8 59.6466 394.8 50.8466V36.1799L399.467 35.7799C402.133 35.5133 404.133 34.7133 404.133 34.0466C404.133 32.5799 382.533 31.3799 381.067 32.8466Z" fill="white"></path><path d="M218.8 49.3799C218.8 59.1133 219.333 65.3799 220.133 65.3799C220.933 65.3799 221.467 59.1133 221.467 49.3799C221.467 39.6466 220.933 33.3799 220.133 33.3799C219.333 33.3799 218.8 39.6466 218.8 49.3799Z" fill="white"></path><path d="M268.4 35.513C264.933 37.913 264.533 42.8464 267.867 45.6464C269.067 46.8464 273.2 48.7131 277.067 49.9131C288 53.5131 288.133 61.3797 277.2 61.3797C273.333 61.3797 271.2 60.4464 268.8 57.9131C266.533 55.5131 265.467 54.9797 265.467 56.3131C265.467 57.3797 266.933 59.6464 268.8 61.3797C272.8 65.1131 279.733 65.5131 284.8 62.1797C291.6 57.7797 286.933 49.2464 276.667 47.2464C271.067 46.1797 267.733 42.0464 269.6 38.4464C271.467 34.9797 280.8 35.113 283.067 38.7131C285.2 42.0464 288.4 42.3131 287.2 38.9797C286.8 37.7797 285.467 35.913 284.4 34.9797C281.467 32.713 272 32.9797 268.4 35.513Z" fill="white"></path><path d="M314.533 36.4465C309.2 40.9798 307.467 47.7798 310.133 54.4465C312.8 61.1131 317.333 64.1798 324.133 64.3131C332.667 64.4465 340.133 57.3798 340.133 49.2465C340.133 46.9798 339.2 46.7131 332.133 46.7131C325.867 46.7131 324.133 47.1131 324.133 48.7131C324.133 50.1798 325.733 50.7131 330.8 50.7131C334.533 50.7131 337.467 51.2465 337.467 51.9131C337.467 54.5798 331.6 60.0465 327.733 61.1131C322.4 62.5798 315.733 59.6465 313.6 55.1131C309.067 45.1131 314.533 36.0465 324.933 36.0465C329.067 36.0465 331.6 36.8465 333.467 38.7131C334.933 40.1798 336.933 41.3798 337.867 41.3798C338.667 41.3798 337.467 39.5131 335.067 37.3798C329.467 32.1798 320 31.7798 314.533 36.4465Z" fill="white"></path><path d="M414.4 35.7796C412 38.4463 411.467 42.313 413.2 45.113C413.867 46.0463 417.867 48.1796 422.267 49.7796C429.333 52.5796 430.133 53.2463 430.133 56.8463C430.133 60.4463 429.733 60.713 424.133 61.113C418.933 61.513 417.733 61.113 415.333 58.0463C413.467 55.7796 412.133 54.9796 411.6 55.913C411.067 56.713 412.133 58.8463 414.133 60.713C416.933 63.6463 418.533 64.1796 423.733 63.7796C428.533 63.513 430.4 62.5796 432.533 59.7796C435.067 56.4463 435.067 56.0463 432.933 52.8463C431.6 50.5796 428.667 48.8463 424.8 47.913C413.6 45.113 411.733 37.913 421.6 35.7796C425.467 34.9796 426.533 35.2463 429.067 38.0463C430.667 39.913 432.4 40.8463 432.8 40.0463C433.2 39.3796 432.4 37.6463 430.8 36.0463C427.2 32.4463 417.467 32.313 414.4 35.7796Z" fill="white"></path></svg> 