<?xml version="1.0" encoding="UTF-8"?> <svg xmlns="http://www.w3.org/2000/svg" width="1024" height="1024" viewBox="0 0 1024 1024" fill="none"><path d="M264.182 375.852C245.152 381.102 232.957 393.082 225.721 414.08C223.844 419.464 223.576 431.444 223.174 505.746C222.772 566.049 223.04 593.912 224.246 600.373C227.463 620.295 240.998 638.332 257.214 644.389C275.305 651.254 301.17 650.312 317.252 642.505C327.973 637.121 331.859 633.486 338.56 622.449C345.26 611.142 347.405 599.431 348.343 570.626L349.147 546.128H328.911H308.809L308.273 570.626C307.737 599.566 306.665 603.469 297.284 608.046C283.212 614.776 268.739 608.45 265.656 594.047C264.584 589.336 264.316 562.011 264.584 507.092C264.986 429.829 265.12 426.867 267.667 422.426C272.223 414.618 276.78 412.196 286.429 412.196C296.078 412.196 300.634 414.618 305.19 422.426C307.469 426.329 308.005 429.963 308.273 446.789L308.809 466.711H328.911H349.147L348.209 446.385C347.137 422.695 345.796 415.157 340.57 403.985C333.869 389.582 322.21 380.025 306.531 375.987C296.882 373.429 273.027 373.295 264.182 375.852Z" fill="white"></path><path d="M406.341 379.465C405.54 383.209 364.284 641.146 364.284 642.751C364.284 643.419 372.829 643.954 383.377 643.954H402.469L405.54 622.158C407.142 610.258 408.878 599.427 409.145 598.09C409.812 596.084 412.216 595.816 435.847 595.816C451.602 595.816 461.749 596.351 461.749 597.154C461.749 599.427 468.558 643.152 468.959 643.553C469.226 643.82 478.705 643.82 490.054 643.687L510.615 643.286L493.792 537.65C484.446 479.484 474.833 419.579 472.43 404.202L468.024 376.523H437.583H407.009L406.341 379.465ZM445.727 492.321C450.801 526.953 455.073 556.237 455.073 557.44C455.073 559.446 452.937 559.713 435.046 559.713C424.098 559.713 415.019 559.312 415.019 558.644C415.019 556.37 433.711 431.747 434.646 428.672C435.714 424.393 434.913 419.446 445.727 492.321Z" fill="white"></path><path d="M533.321 510.239V643.954H554.052H574.782V588.462V532.97H602.2H629.618V514.25V495.53H602.2H574.782V454.747V413.963H609.556H644.33V395.243V376.523H588.826H533.321V510.239Z" fill="white"></path><path d="M694.661 380.133C693.849 383.744 651.899 642.216 651.899 643.419C651.899 643.687 660.56 643.954 671.25 643.954H690.601L693.713 622.827C695.473 611.327 697.096 600.497 697.502 598.758C698.179 595.816 698.314 595.816 724.431 595.816C738.911 595.816 750.684 596.218 750.684 596.753C750.684 597.421 752.307 607.45 754.067 619.217C755.961 630.984 757.45 641.414 757.45 642.216C757.45 643.553 762.727 643.954 779.101 643.954H800.752L800.076 640.879C799.399 637.536 757.45 378.796 757.45 377.459C757.45 376.924 743.512 376.523 726.461 376.523H695.473L694.661 380.133ZM734.445 490.983C739.587 525.616 743.918 555.167 743.918 556.772C743.918 559.713 743.512 559.713 723.484 559.713H703.051L703.862 555.301C704.268 553.028 708.599 524.546 713.47 492.187C723.078 428.271 724.025 423.056 724.567 425.998C724.702 427.067 729.168 456.351 734.445 490.983Z" fill="white"></path></svg> 