<?xml version="1.0" encoding="UTF-8"?> <svg xmlns="http://www.w3.org/2000/svg" xmlns:xlink="http://www.w3.org/1999/xlink" id="Layer_1" data-name="Layer 1" version="1.1" viewBox="0 0 367.9 131"><defs><style> .cls-1 { fill: url(#linear-gradient); } .cls-1, .cls-2, .cls-3, .cls-4, .cls-5, .cls-6, .cls-7, .cls-8, .cls-9, .cls-10, .cls-11 { stroke-width: 0px; } .cls-2 { fill: url(#linear-gradient-6); } .cls-3 { fill: url(#linear-gradient-5); } .cls-4 { fill: none; } .cls-5 { fill: url(#linear-gradient-2); } .cls-6 { fill: url(#linear-gradient-7); } .cls-7 { fill: url(#linear-gradient-3); } .cls-12 { clip-path: url(#clippath); } .cls-8 { fill: url(#linear-gradient-9); } .cls-9 { fill: url(#linear-gradient-8); } .cls-10 { fill: #fff; } .cls-11 { fill: url(#linear-gradient-4); } </style><clipPath id="clippath"><rect class="cls-4" y="0" width="367.9" height="131"></rect></clipPath><linearGradient id="linear-gradient" x1="17" y1="-42" x2="91.1" y2="136.5" gradientTransform="translate(0 131.7) scale(1 -1)" gradientUnits="userSpaceOnUse"><stop offset="0" stop-color="#f088b6"></stop><stop offset=".5" stop-color="#e72b5f"></stop><stop offset=".9" stop-color="#17457e" stop-opacity="0"></stop></linearGradient><linearGradient id="linear-gradient-2" x1="-27.7" y1="51.9" x2="51.2" y2="149.6" gradientTransform="translate(0 131.7) scale(1 -1)" gradientUnits="userSpaceOnUse"><stop offset="0" stop-color="#f088b6"></stop><stop offset=".4" stop-color="#e72b5f"></stop><stop offset=".9" stop-color="#183c6a"></stop></linearGradient><linearGradient id="linear-gradient-3" x1="-35.4" y1="58.1" x2="43.5" y2="155.8" gradientTransform="translate(0 131.7) scale(1 -1)" gradientUnits="userSpaceOnUse"><stop offset="0" stop-color="#f088b6"></stop><stop offset=".4" stop-color="#e72b5f"></stop><stop offset=".9" stop-color="#183c6a"></stop></linearGradient><linearGradient id="linear-gradient-4" x1="10.3" y1="-63.3" x2="83.3" y2="143.4" gradientTransform="translate(0 131.7) scale(1 -1)" gradientUnits="userSpaceOnUse"><stop offset="0" stop-color="#f088b6"></stop><stop offset=".5" stop-color="#e72b5f"></stop><stop offset=".9" stop-color="#17457e" stop-opacity="0"></stop></linearGradient><linearGradient id="linear-gradient-5" x1="14.2" y1="-12.9" x2="83.5" y2="127.3" gradientTransform="translate(0 131.7) scale(1 -1)" gradientUnits="userSpaceOnUse"><stop offset="0" stop-color="#f088b6"></stop><stop offset=".5" stop-color="#e72b5f"></stop><stop offset=".9" stop-color="#17457e" stop-opacity="0"></stop></linearGradient><linearGradient id="linear-gradient-6" x1="12.9" y1="19.1" x2="91.9" y2="116.7" gradientTransform="translate(0 131.7) scale(1 -1)" gradientUnits="userSpaceOnUse"><stop offset="0" stop-color="#f088b6"></stop><stop offset=".5" stop-color="#e72b5f"></stop><stop offset=".9" stop-color="#17457e" stop-opacity="0"></stop></linearGradient><linearGradient id="linear-gradient-7" x1="-10.5" y1="38" x2="68.5" y2="135.6" gradientTransform="translate(0 131.7) scale(1 -1)" gradientUnits="userSpaceOnUse"><stop offset="0" stop-color="#f088b6"></stop><stop offset=".4" stop-color="#e72b5f"></stop><stop offset=".9" stop-color="#183c6a"></stop></linearGradient><linearGradient id="linear-gradient-8" x1="-21.7" y1="47" x2="57.3" y2="144.7" gradientTransform="translate(0 131.7) scale(1 -1)" gradientUnits="userSpaceOnUse"><stop offset="0" stop-color="#f088b6"></stop><stop offset=".4" stop-color="#e72b5f"></stop><stop offset=".9" stop-color="#183c6a"></stop></linearGradient><linearGradient id="linear-gradient-9" x1="20.9" y1="89.2" x2="56.5" y2="107.6" gradientTransform="translate(0 131.7) scale(1 -1)" gradientUnits="userSpaceOnUse"><stop offset="0" stop-color="#f088b6"></stop><stop offset=".4" stop-color="#e72b5f"></stop><stop offset=".9" stop-color="#17457e"></stop></linearGradient></defs><g class="cls-12"><g><path class="cls-1" d="M91.9,3.8v71c.1,4.7-.7,9.5-2.4,13.9-1.7,4.4-4.3,8.5-7.6,11.9-3.3,3.4-7.3,6.1-11.6,8-4.4,1.8-9.1,2.8-13.8,2.8s-9.5-1-13.8-2.8c-4.4-1.8-8.3-4.6-11.6-8-3.3-3.4-5.9-7.4-7.6-11.9-1.7-4.4-2.5-9.1-2.4-13.9,0-1-.5-1.9-1.2-2.5-.7-.7-1.6-1-2.6-1s-1.9.4-2.6,1c-.7.7-1.2,1.5-1.2,2.5,0,11.3,4.6,22.1,12.5,30.1,8,8,18.7,12.6,30,12.8,11.3.2,22.2-4.1,30.4-11.8,8.2-7.8,13-18.4,13.4-29.7,0-.2,0-.4,0-.5V3.8c0-1-.4-2-1.1-2.7-.7-.7-1.7-1.1-2.7-1.1s-2,.4-2.7,1.1c-.7.7-1.1,1.7-1.1,2.7h0Z"></path><path class="cls-5" d="M17.1,48.7c-.5,0-1-.1-1.5-.3-.5-.2-.9-.5-1.3-.9-.4-.4-.6-.8-.8-1.3-.2-.5-.3-1-.3-1.5V3.9c0-1,.4-2,1.1-2.7.7-.7,1.7-1.1,2.7-1.1s2,.4,2.7,1.1c.7.7,1.1,1.7,1.1,2.7v40.9c0,.5,0,1-.3,1.5-.2.5-.5.9-.8,1.3-.4.4-.8.7-1.3.9-.5.2-1,.3-1.5.3Z"></path><path class="cls-7" d="M0,33.6c0,1,.5,1.9,1.2,2.5.7.7,1.6,1,2.6,1s1.9-.4,2.6-1c.7-.7,1.2-1.5,1.2-2.5v-17.1c0-1-.5-1.9-1.2-2.5-.7-.7-1.6-1-2.6-1s-1.9.4-2.6,1c-.7.7-1.2,1.5-1.2,2.5v17.1Z"></path><path class="cls-11" d="M0,46.4v28.3C0,89.6,5.9,103.9,16.5,114.5c10.6,10.6,24.9,16.5,39.9,16.5s29.3-5.9,39.9-16.5c10.6-10.6,16.5-24.9,16.5-39.8V3.9c0-.5,0-1-.3-1.5-.2-.5-.5-.9-.8-1.2-.4-.4-.8-.6-1.2-.8-.5-.2-1-.3-1.5-.3s-1,0-1.5.3c-.5.2-.9.5-1.2.8-.4.4-.6.8-.8,1.2-.2.5-.3,1-.3,1.5v70.8c-.3,12.7-5.5,24.7-14.6,33.6-9.1,8.9-21.3,13.9-34,13.9-12.7,0-24.9-4.9-34-13.7-9.1-8.8-14.4-20.9-14.8-33.6v-28.5c0-.5,0-1.1-.2-1.6-.2-.5-.4-1-.8-1.4-.4-.4-.8-.7-1.3-.9-.5-.2-1-.3-1.6-.3s-1.1.1-1.6.3c-.5.2-.9.5-1.3.9-.4.4-.6.9-.8,1.4-.2.5-.2,1.1-.2,1.6H0Z"></path><path class="cls-3" d="M79,10.9v63.3c0,.1,0,.3,0,.4,0,6-2.4,11.7-6.6,15.9-4.2,4.2-9.9,6.6-15.9,6.6s-11.7-2.4-15.9-6.6c-4.2-4.2-6.6-9.9-6.6-15.9v-37.5c0-1-.4-2-1.1-2.7-.7-.7-1.7-1.1-2.7-1.1s-2,.4-2.7,1.1c-.7.7-1.1,1.7-1.1,2.7v37.5c0,8,3,15.7,8.6,21.4,5.6,5.7,13.2,9,21.3,9.1,8,0,15.7-3,21.5-8.6,5.7-5.6,9-13.2,9.1-21.2V10.9c0-1-.4-2-1.1-2.7-.7-.7-1.7-1.1-2.7-1.1s-2,.4-2.7,1.1c-.7.7-1.1,1.7-1.1,2.7Z"></path><path class="cls-2" d="M39.4,74.8v-9.9c0-1,.5-1.9,1.2-2.5.7-.7,1.6-1,2.6-1s1.9.4,2.6,1c.7.7,1.2,1.5,1.2,2.5v10.1c0,2.5,1,4.9,2.8,6.6,1.8,1.8,4.2,2.7,6.6,2.7s4.9-1,6.6-2.7c1.8-1.8,2.8-4.1,2.8-6.6,0,0,0-.2,0-.3V5c0-1,.4-2,1.1-2.7.7-.7,1.7-1.1,2.7-1.1s2,.4,2.7,1.1c.7.7,1.1,1.7,1.1,2.7v70.2c0,4.5-1.9,8.8-5.1,12-3.2,3.2-7.6,4.9-12.1,4.9-4.5,0-8.8-1.9-12-5.1-3.2-3.2-4.9-7.6-4.9-12.1h0Z"></path><path class="cls-6" d="M13.2,62.6c0,1,.4,2,1.1,2.7.7.7,1.7,1.1,2.7,1.1s2-.4,2.7-1.1c.7-.7,1.1-1.7,1.1-2.7v-5.9c0-1-.4-2-1.1-2.7-.7-.7-1.7-1.1-2.7-1.1s-2,.4-2.7,1.1c-.7.7-1.1,1.7-1.1,2.7v5.9Z"></path><path class="cls-9" d="M30.1,28.9c-1,0-2-.4-2.7-1.1-.7-.7-1.1-1.7-1.1-2.7v-8.6c0-1,.4-2,1.1-2.7.7-.7,1.7-1.1,2.7-1.1s2,.4,2.7,1.1c.7.7,1.1,1.7,1.1,2.7v8.6c0,1-.4,2-1.1,2.7-.7.7-1.7,1.1-2.7,1.1Z"></path><path class="cls-8" d="M39.4,52.1c0,1,.5,1.9,1.2,2.5.7.7,1.6,1,2.6,1s1.9-.4,2.6-1c.7-.7,1.2-1.5,1.2-2.5V10c0-1-.5-1.9-1.2-2.5-.7-.7-1.6-1-2.6-1s-1.9.4-2.6,1c-.7.7-1.2,1.5-1.2,2.5v42.1Z"></path><path class="cls-10" d="M150.7,82.8h-9.4c-.8-3.5-3.4-5-8-5s-7.2,1.5-7.2,5,2.5,3.9,5.5,4.5l8.2,1.5c6.9,1.3,12,4.9,12,12.9s-5.7,13.8-17.7,13.8-17.9-5.6-18.8-14.2h9.4c.8,4.8,5,6.3,9.8,6.3s8.1-2,8.1-5.5-2.3-4.8-6-5.5l-8.4-1.5c-7.3-1.3-11.3-5.3-11.3-12s5.9-13.2,16.6-13.2c9.6,0,16.2,5,17.3,12.9Z"></path><path class="cls-10" d="M186.5,97.3v2.6h-22.7c.3,5.4,2.8,8.5,7.7,8.5,1.2.2,2.5,0,3.5-.6,1.1-.6,1.9-1.5,2.4-2.7h8.8c-1.3,6.3-6.3,10.5-14.8,10.5s-16.2-6.7-16.2-16.8,6.3-16.5,16-16.5c2-.1,4,.2,5.9.9,1.9.7,3.6,1.8,5.1,3.2,1.4,1.4,2.6,3.1,3.3,5s1.1,3.9,1,5.9ZM171.2,88.7c-1.6-.1-3.3.4-4.6,1.4-1.3,1-2.2,2.5-2.4,4.1h13.6c0-.8-.3-1.6-.7-2.3-.4-.7-.9-1.3-1.5-1.8-.6-.5-1.3-.9-2.1-1.1-.8-.2-1.6-.3-2.4-.2Z"></path><path class="cls-10" d="M191.3,70h8.6v44.7h-8.6v-44.7Z"></path><path class="cls-10" d="M206.5,70h8.6v44.7h-8.6v-44.7Z"></path><path class="cls-10" d="M230.4,77.7h-8.8v-7.7h8.7v7.7ZM230.4,83.1v31.6h-8.8v-31.6h8.8Z"></path><path class="cls-10" d="M328.2,77.7h-8.8v-7.7h8.7v7.7ZM312,115.1h-.1c-2.1,0-3.8-1.7-3.8-3.8h0c0-2.1,1.7-3.8,3.8-3.8h.1c2.1,0,3.8,1.7,3.8,3.8h0c0,2.1-1.7,3.9-3.8,3.9ZM328.2,83.1v31.6h-8.8v-31.6h8.8Z"></path><path class="cls-10" d="M267.4,114.7h-8.6v-17.9c0-4.4-2.2-6.9-6.3-6.9-1,0-2,.3-2.9.7-.9.4-1.7,1-2.4,1.8-.7.7-1.2,1.6-1.5,2.6-.3.9-.4,1.9-.3,2.9v16.8h-8.5v-31.6h8.3v2.9h1.6c1.1-1.3,2.4-2.3,3.9-2.9,1.5-.6,3.2-.9,4.9-.8,8,0,11.7,4.8,11.7,13v19.4Z"></path><path class="cls-10" d="M295.7,83.1h8.3v30.1c0,9-6.5,14.5-15.9,14.5s-14.6-3.7-15.2-10.6h8.5c.4,2.6,2.6,3.9,6.5,3.9s7.4-3.7,7.4-8.5v-1.8h-1.6c-1,1.2-2.2,2.2-3.7,2.9-1.4.6-3,.9-4.6.8-8.5,0-13.8-6.6-13.8-15.9s5.4-16,13.9-16c1.6-.1,3.2.1,4.7.8,1.5.6,2.8,1.6,3.8,2.9h1.6v-2.9ZM287.9,107c1.1,0,2.2-.2,3.2-.7s1.9-1.1,2.6-1.9c.7-.8,1.3-1.8,1.6-2.9.3-1.1.4-2.2.3-3.3,0-4.9-2.7-8.8-7.8-8.8s-7.6,3.7-7.6,8.8,2.7,8.8,7.6,8.8Z"></path><path class="cls-10" d="M124.6,21v9.9l-22.9,24.1v1.7h23.9v8.2h-35.8v-9.9l23-24.1v-1.8h-21.4v-8.2h33.1Z"></path><path class="cls-10" d="M144.1,32.5c3.3,0,6.5.9,9.3,2.7,2.8,1.8,4.9,4.4,6.2,7.4,1.3,3,1.7,6.4,1,9.6-.6,3.2-2.2,6.2-4.5,8.6-2.3,2.3-5.3,3.9-8.5,4.6-3.2.7-6.6.3-9.6-.9-3.1-1.2-5.7-3.4-7.5-6.1-1.8-2.7-2.8-6-2.8-9.2-.2-2.2.1-4.4.9-6.5.8-2.1,2-4,3.5-5.5,1.6-1.6,3.4-2.8,5.5-3.6s4.3-1.1,6.5-1ZM144.1,58.6c5.4,0,7.8-4.4,7.8-9.4s-2.3-9.4-7.8-9.4-7.8,4.4-7.8,9.4,2.4,9.4,7.8,9.4Z"></path><path class="cls-10" d="M179.9,32.5c3.3,0,6.5.9,9.3,2.7,2.8,1.8,4.9,4.4,6.2,7.4,1.3,3,1.7,6.4,1,9.6-.6,3.2-2.2,6.2-4.5,8.6-2.3,2.3-5.3,3.9-8.5,4.6-3.2.7-6.6.3-9.6-.9-3.1-1.2-5.7-3.4-7.5-6.1-1.8-2.7-2.8-6-2.8-9.2-.2-2.2.1-4.4.9-6.5.8-2.1,2-4,3.5-5.5,1.6-1.6,3.4-2.8,5.5-3.6,2.1-.8,4.3-1.1,6.5-1ZM179.9,58.6c5.4,0,7.8-4.4,7.8-9.4s-2.3-9.4-7.8-9.4-7.8,4.4-7.8,9.4,2.5,9.4,7.8,9.4Z"></path><path class="cls-10" d="M349.6,82.3c3.3,0,6.5.9,9.3,2.7,2.8,1.8,4.9,4.4,6.2,7.4,1.3,3,1.7,6.4,1,9.6-.6,3.2-2.2,6.2-4.5,8.6-2.3,2.3-5.3,3.9-8.5,4.6-3.2.7-6.6.3-9.6-.9-3.1-1.2-5.7-3.4-7.5-6.1-1.8-2.7-2.8-6-2.8-9.2-.2-2.2.1-4.4.9-6.5.8-2.1,2-4,3.5-5.5,1.6-1.6,3.4-2.8,5.5-3.6,2.1-.8,4.3-1.1,6.5-1ZM349.6,108.4c5.4,0,7.8-4.4,7.8-9.4s-2.3-9.4-7.8-9.4-7.8,4.4-7.8,9.4,2.5,9.4,7.8,9.4Z"></path><path class="cls-10" d="M237.3,32.5c7.6,0,11,4.8,11,12.5v19.9h-8.6v-18.3c0-4.2-1.3-6.5-4.8-6.5s-5.8,3.1-5.8,7.1v17.7h-8.6v-18.3c0-4.1-1.4-6.5-4.8-6.5s-5.9,3.6-5.9,7.8v17h-8.6v-31.6h8.3v2.9h1.6c.9-1.3,2.1-2.3,3.4-2.9,1.4-.6,2.9-.9,4.5-.8,1.5-.1,3.1.1,4.5.8,1.4.6,2.6,1.7,3.5,2.9h1.6c1-1.3,2.3-2.3,3.8-2.9,1.5-.6,3.1-.9,4.8-.8Z"></path></g></g></svg> 