<?xml version="1.0" encoding="UTF-8"?> <svg xmlns="http://www.w3.org/2000/svg" width="1024" height="1024" viewBox="0 0 1024 1024" fill="none"><path d="M511.618 306.105C362.81 330.905 241.04 351.19 241.004 351.208C240.916 351.278 242.186 763.201 242.292 763.307C242.398 763.413 691.539 720.444 691.786 720.303C691.962 720.197 697.36 669.909 697.218 669.768C697.166 669.715 598.236 686.683 477.383 707.462L257.637 745.28L257.601 743.41C257.548 741.294 267.69 373.539 267.796 373.468C267.919 373.362 680.939 331.24 681.027 331.311C681.062 331.346 678.769 378.901 675.93 437.004L670.744 542.626L692.403 566.421C704.326 579.509 714.098 590.251 714.133 590.286C714.168 590.322 714.221 590.322 714.256 590.286C714.292 590.251 729.689 516.273 748.473 425.909C767.257 335.544 782.673 261.461 782.725 261.284C782.796 261.073 782.725 260.984 782.496 261.002C782.32 261.02 660.426 281.305 511.618 306.105Z" fill="white"></path><path d="M605.009 405.377C593.615 406.365 584.126 407.194 583.932 407.194C583.579 407.211 582.892 410.404 573.438 454.872C564.037 499.04 563.296 502.444 563.243 501.227C563.208 500.504 563.349 479.496 563.578 454.537C563.808 429.578 563.931 409.116 563.878 409.046C563.772 408.958 522.659 412.433 522.553 412.538C522.448 412.644 519.608 650.47 519.696 650.576C519.82 650.7 561.762 647.384 561.903 647.225C561.991 647.137 562.979 551.234 563.032 536.417C563.049 533.295 563.12 531.637 563.208 531.919C563.296 532.166 568.305 557.795 574.337 588.893C580.369 619.99 585.308 645.443 585.326 645.443C585.361 645.496 629.614 641.951 629.684 641.898C629.719 641.863 623.423 613.041 615.698 577.868L601.658 513.91L613.652 459.37C620.266 429.366 625.733 404.53 625.822 404.16C625.892 403.807 625.91 403.525 625.839 403.525C625.786 403.543 616.403 404.372 605.009 405.377Z" fill="white"></path><path d="M456.148 418.2C437.081 419.841 421.472 421.217 421.454 421.217C421.401 421.252 396.356 660.401 396.409 660.436C396.48 660.507 437.452 657.208 437.505 657.138C437.54 657.103 438.298 648.336 439.198 637.664C440.115 626.993 440.891 618.209 440.962 618.156C441.085 618.05 466.219 616.004 466.307 616.11C466.342 616.145 466.906 624.841 467.559 635.424C468.723 654.245 468.758 654.686 469.111 654.686C469.817 654.668 508.919 651.529 508.972 651.476C508.99 651.441 505.251 598.524 500.665 533.859C496.079 469.195 492.322 416.031 492.305 415.713C492.305 415.167 492.287 415.149 491.564 415.167C491.141 415.184 475.214 416.542 456.148 418.2ZM456.571 459.105C456.747 460.728 463.732 577.833 463.661 577.921C463.502 578.062 444.771 579.526 444.665 579.403C444.595 579.315 454.613 458.435 454.719 458.223C454.719 458.206 455.125 458.188 455.601 458.188H456.483L456.571 459.105Z" fill="white"></path><path d="M354.591 426.967C330.215 429.084 310.232 430.848 310.179 430.883C310.073 431.006 308.856 475.527 308.98 475.633C309.033 475.686 314.536 475.262 321.238 474.698C327.923 474.134 333.443 473.693 333.478 473.745C333.514 473.781 332.438 516.979 331.097 569.754C329.739 622.53 328.681 665.728 328.716 665.763C328.822 665.887 370.429 662.553 370.658 662.412C370.782 662.341 371.487 633.625 373.022 566.368C374.204 513.61 375.227 470.359 375.262 470.271C375.297 470.165 380.518 469.653 387.555 469.054C394.293 468.489 399.831 467.96 399.884 467.872C399.937 467.801 400.166 458.611 400.378 447.481C400.589 436.351 400.819 426.297 400.889 425.15L400.995 423.086L399.954 423.104C399.372 423.122 378.966 424.85 354.591 426.967Z" fill="white"></path><path d="M669.192 575.346C669.122 575.522 666.088 637.858 666.141 637.911C666.229 637.999 705.067 634.048 705.173 633.942C705.349 633.784 713.657 593.232 713.533 593.126C713.392 592.985 669.51 575.31 669.316 575.31C669.263 575.31 669.21 575.328 669.192 575.346Z" fill="white"></path></svg> 