<?xml version="1.0" encoding="UTF-8"?> <svg xmlns="http://www.w3.org/2000/svg" width="1024" height="1024" viewBox="0 0 1024 1024" fill="none"><path d="M68.5726 481.118C56.1826 506.112 46 526.762 46 526.976C46 527.261 66.1515 527.474 90.7891 527.474C115.427 527.474 136.148 527.688 136.789 527.901C137.43 528.186 144.622 541.644 152.882 558.164C161.07 574.613 167.906 588 168.12 588C168.618 588 198.525 528.044 198.169 527.688C197.955 527.545 184.925 527.403 169.117 527.474C147.327 527.474 139.922 527.261 138.569 526.548C137.216 525.908 131.733 515.654 114.359 481.047C102.04 456.481 91.786 436.187 91.5724 436.045C91.3588 435.831 81.0338 456.125 68.5726 481.118Z" fill="white"></path><path d="M253.782 461.252C242.745 464.1 233.417 471.078 229.287 479.481C227.364 483.397 227.222 484.252 227.222 491.871C227.222 498.778 227.506 500.558 228.788 503.478C231.636 509.601 238.187 514.942 247.871 518.929C249.509 519.642 256.06 521.208 262.113 522.49C275.286 525.196 280.271 528.115 280.271 533.171C280.271 537.942 274.432 541.716 267.026 541.716C258.909 541.716 252.856 537.657 250.72 530.679L249.438 526.762L236.906 526.905L224.373 527.118L224.587 531.035C225.157 543.852 231.28 553.75 241.961 558.948C250.364 563.149 254.85 564.003 267.382 563.861C283.831 563.79 291.877 561.369 299.283 554.319C303.698 550.118 305.976 546.202 307.472 539.935C310.534 527.332 305.763 515.868 294.441 508.533C291.806 506.824 289.314 505.4 288.887 505.4C288.459 505.4 287.534 505.115 286.822 504.759C286.181 504.332 283.689 503.549 281.339 502.908C278.989 502.267 276.141 501.484 274.93 501.128C273.791 500.843 271.512 500.344 269.946 500.06C259.122 498.279 254.351 494.292 255.775 488.453C256.274 486.317 257.057 485.462 259.621 484.18C262.326 482.756 263.608 482.543 268.308 482.828C274.36 483.112 277.636 484.821 279.487 488.738C279.986 489.877 280.698 491.301 280.983 491.871C281.41 492.725 283.689 492.939 293.8 493.153C302.772 493.295 306.332 493.081 306.688 492.512C308.113 490.162 304.695 479.552 300.778 473.998C297.36 469.085 290.382 464.243 284.187 462.391C281.837 461.679 278.918 460.825 277.707 460.469C274.076 459.401 259.051 459.899 253.782 461.252Z" fill="white"></path><path d="M831.412 460.682C822.297 463.246 818.452 465.026 813.61 468.8C805.991 474.781 802.716 481.973 802.644 492.583C802.573 498.493 802.858 499.846 804.496 503.264C807.486 509.459 812.898 514.443 819.307 517.078C821.087 517.79 823.152 518.645 823.935 519.001C826.427 519.998 830.201 520.923 836.396 522.134C839.743 522.775 843.019 523.629 843.659 523.985C844.372 524.341 845.511 524.626 846.152 524.626C849 524.626 853.842 527.83 855.124 530.536C856.406 533.1 856.406 533.242 855.124 535.806C853.486 539.152 849.57 541.217 844.087 541.573C835.471 542.214 828.208 537.871 826.285 530.892L825.217 527.118H812.471H799.725L799.867 530.323C800.366 541.217 805.706 551.685 813.254 556.527C822.44 562.508 828.492 564.003 842.663 563.861C853.628 563.79 854.697 563.719 860.607 562.223C869.08 560.016 877.34 553.821 880.758 546.985C886.882 534.737 883.393 517.933 873.139 510.527C867.3 506.255 860.322 503.335 853.13 502.053C851.991 501.84 850.709 501.413 850.282 501.128C849.926 500.843 847.861 500.416 845.796 500.131C842.164 499.632 841.025 499.276 835.898 497.069C829.204 494.221 829.062 486.388 835.684 483.753C839.672 482.187 846.65 482.329 850.495 484.038C852.988 485.177 853.842 486.103 855.337 489.379L857.189 493.295L869.721 493.153L882.325 492.939L882.538 490.589C882.966 486.388 878.622 476.063 874.634 471.862C866.446 463.317 856.975 459.757 842.164 459.899C837.607 459.97 832.765 460.255 831.412 460.682Z" fill="white"></path><path d="M491.969 461.038L487.483 461.323L487.34 511.31C487.198 538.796 487.269 561.725 487.411 562.152C487.554 562.864 490.901 563.078 501.083 563.078H514.541V512.236V461.394L512.975 460.967C511.337 460.54 500.157 460.611 491.969 461.038Z" fill="white"></path><path d="M524.653 462.106C524.368 463.032 524.297 468.088 524.51 473.357L524.866 482.97L538.894 483.326C547.154 483.54 553.207 483.967 553.634 484.394C554.132 484.892 554.488 498.351 554.559 523.914L554.773 562.722L568.089 562.935L581.476 563.078L581.618 523.415L581.832 483.682L596.785 483.326L611.739 482.97V472.36V461.679L609.887 461.181C608.819 460.967 589.38 460.682 566.593 460.611L525.222 460.469L524.653 462.106Z" fill="white"></path><path d="M619.785 461.323C619.002 461.821 618.29 479.908 618.931 482.044C619.287 483.184 620.568 483.326 633.03 483.326C642.856 483.326 647.057 483.611 647.912 484.18C649.051 485.035 649.122 488.453 649.265 523.914L649.478 562.722L662.794 562.935L676.181 563.078L676.323 523.415L676.537 483.682L691.49 483.326L706.444 482.97L706.586 473.001C706.729 467.447 706.515 462.534 706.088 461.964C705.518 461.038 699.893 460.896 662.936 460.896C639.581 460.896 620.212 461.109 619.785 461.323Z" fill="white"></path><path d="M716.057 461.608C715.345 462.462 715.06 560.158 715.772 561.938C716.199 563.006 719.475 563.078 752.443 563.078H788.688L788.759 559.304C788.83 550.759 788.545 541.36 788.26 541.004C788.047 540.79 778.291 540.647 766.542 540.647C748.313 540.647 745.109 540.505 744.539 539.579C743.543 538.013 743.614 525.124 744.682 524.056C745.323 523.415 750.948 523.202 765.688 523.202H785.839V512.521C785.839 502.765 785.697 501.84 784.486 501.128C783.632 500.7 775.728 500.416 763.908 500.416C747.032 500.416 744.611 500.273 744.255 499.276C743.4 496.998 743.756 484.964 744.753 484.109C745.394 483.611 752.871 483.255 767.397 483.184L789.044 482.97L789.257 473.713C789.329 468.586 789.257 463.744 789.044 462.89L788.688 461.252L752.657 461.109C729.159 460.967 716.413 461.109 716.057 461.608Z" fill="white"></path><path d="M910.665 461.038L891.226 461.252V472.289V483.326H905.823H920.42L921.061 484.964C921.417 485.889 921.702 503.762 921.702 524.697V562.722L934.947 562.935C945.272 563.078 948.191 562.935 948.191 562.223C948.191 561.725 948.191 544.279 948.191 523.487C948.191 494.505 948.405 485.462 949.117 484.536C949.829 483.468 951.894 483.326 964.213 483.184L978.454 482.97L978.668 472.859C978.81 464.456 978.668 462.605 977.742 461.679C976.531 460.469 971.761 460.469 910.665 461.038Z" fill="white"></path><path d="M318.366 462.106C318.153 462.605 318.082 485.462 318.153 512.877L318.366 562.722H332.252H346.137L346.351 547.982C346.493 533.313 346.564 533.171 348.131 532.886C348.985 532.672 354.824 532.388 361.09 532.245C370.703 531.96 373.124 531.675 376.4 530.323C378.536 529.468 380.886 528.614 381.598 528.4C382.239 528.186 382.809 527.759 382.809 527.403C382.809 527.047 383.236 526.762 383.734 526.762C385.301 526.762 392.778 518.858 394.629 515.227C397.976 508.533 398.759 505.4 398.759 497.211C398.759 489.094 398.189 486.53 394.843 479.338C391.14 471.577 382.31 464.812 372.484 462.32C366.787 460.896 318.865 460.753 318.366 462.106ZM362.301 484.679C372.27 488.951 373.48 501.911 364.651 508.676C362.23 510.527 361.375 510.741 354.895 510.954C350.694 511.168 347.49 510.954 347.063 510.527C346.208 509.673 345.923 485.533 346.707 484.18C347.632 482.756 358.598 483.041 362.301 484.679Z" fill="white"></path><path d="M408.87 462.462C408.657 463.174 408.585 486.032 408.657 513.233L408.799 562.722H442.622H476.446L476.659 552.468C476.802 545.561 476.588 541.929 476.018 541.288C475.377 540.505 471.461 540.292 455.796 540.292C438.492 540.292 436.285 540.149 435.929 539.152C435.644 538.511 435.502 521.564 435.502 501.555C435.502 481.546 435.502 464.314 435.502 463.174V461.252H422.4C410.508 461.252 409.226 461.394 408.87 462.462Z" fill="white"></path></svg> 